# xmcd
#
# Track frame offsets: 
#        150
#        18307
#        30565
#        46937
#        63482
#        82630
#        102980
#        123465
#        141047
#        161305
#        179122
#        200317
#        221772
#
# Disc length: 3192 seconds
#
# Revision: 1
# Processed by: cddbd v1.5.2PL0 Copyright (c) Steve Scherf et al.
# Submitted via: ExactAudioCopy v1.0b3
#
DISCID=ab0c760d
DTITLE=薬師丸ひろ子 - 古今集
DYEAR=2005
DGENRE=Pop
TTITLE0=元気を出して
TTITLE1=つぶやきの音符
TTITLE2=トライアングル
TTITLE3=カーメルの画廊にて
TTITLE4=眠りの坂道
TTITLE5=白い散歩道
TTITLE6=ジャンヌダルクになれそう
TTITLE7=月のオペラ
TTITLE8=アドレサンス（十代後期）
TTITLE9=探偵物語
TTITLE10=すこしだけ　やさしく
TTITLE11=セーラー服と機関銃
TTITLE12=探偵物語（ストリングス・ヴァージョン）
EXTD=YEAR: 1984
EXTT0=
EXTT1=
EXTT2=
EXTT3=
EXTT4=
EXTT5=
EXTT6=
EXTT7=
EXTT8=
EXTT9=
EXTT10=
EXTT11=
EXTT12=
PLAYORDER=
